<svg width="1347" height="1456" viewBox="0 0 1347 1456" fill="none" xmlns="http://www.w3.org/2000/svg">
<g opacity="0.3" clip-path="url(#clip0_1974_4328)">
<path d="M673.187 1082.62C610.234 1082.62 547.908 1065.9 493.035 1034.27C409.412 986.052 349.528 908.207 324.535 815.019C299.479 721.831 312.258 624.447 360.428 540.841C424.758 429.241 544.838 359.914 673.813 359.914C736.766 359.914 799.092 376.635 853.964 408.261C937.588 456.421 997.471 534.328 1022.46 627.516C1047.52 720.704 1034.74 818.088 986.572 901.694C922.241 1013.29 802.161 1082.62 673.187 1082.62ZM673.876 362.481C545.84 362.481 426.575 431.308 362.683 542.094C314.826 625.136 302.173 721.769 327.041 814.33C351.909 906.892 411.353 984.173 494.351 1032.02C548.847 1063.4 610.672 1079.99 673.187 1079.99C801.222 1079.99 920.487 1011.17 984.38 900.379C1032.24 817.336 1044.89 720.704 1020.02 628.142C995.154 535.581 935.709 458.3 852.711 410.453C798.215 379.077 736.39 362.481 673.876 362.481Z" fill="#F3F5F7"/>
<path d="M361.179 902.884C298.227 902.884 235.9 886.163 181.091 854.536C8.45616 755.023 -51.0514 533.702 48.4202 361.104C112.751 249.503 232.831 180.176 361.806 180.176C424.758 180.176 487.085 196.897 541.957 228.524C625.581 276.683 685.401 354.59 710.457 447.778C735.513 540.966 722.735 638.35 674.565 721.957C610.234 833.557 490.154 902.884 361.117 902.884H361.179ZM361.868 182.744C233.833 182.744 114.567 251.57 50.6752 362.356C-48.1073 533.702 10.9617 753.52 182.343 852.282C236.84 883.658 298.665 900.254 361.179 900.254C489.214 900.254 608.48 831.427 672.372 720.641C720.229 637.599 732.882 540.966 708.014 448.405C683.146 355.843 623.701 278.562 540.704 230.715C486.208 199.34 424.383 182.744 361.868 182.744Z" fill="#F3F5F7"/>
<path d="M985.131 1262.42C922.179 1262.42 859.852 1245.7 804.98 1214.07C721.356 1165.85 661.536 1088.01 636.48 994.82C611.424 901.632 624.203 804.248 672.372 720.641C736.703 609.041 856.783 539.714 985.758 539.714C1048.71 539.714 1111.04 556.435 1165.91 588.061C1249.53 636.221 1309.42 714.128 1334.41 807.316C1359.47 900.504 1346.69 997.888 1298.52 1081.49C1234.19 1193.09 1114.11 1262.42 985.131 1262.42ZM985.82 542.282C857.723 542.282 738.52 611.108 674.627 721.894C626.771 804.936 614.118 901.569 638.986 994.131C663.853 1086.69 723.298 1163.97 806.296 1211.82C860.792 1243.2 922.617 1259.79 985.131 1259.79C1113.17 1259.79 1232.43 1190.97 1296.32 1080.18C1344.18 997.137 1356.83 900.504 1331.97 807.942C1307.1 715.381 1247.65 638.1 1164.66 590.253C1110.16 558.878 1048.33 542.282 985.82 542.282Z" fill="#F3F5F7"/>
<path d="M673.5 722.583C474.244 722.583 312.133 560.506 312.133 361.291C312.133 264.784 349.717 174.039 417.994 105.839C486.208 37.5758 576.973 0 673.5 0C872.756 0 1034.87 162.077 1034.87 361.291C1034.87 457.799 997.284 548.544 929.007 616.744C860.73 685.007 770.028 722.583 673.5 722.583ZM673.5 2.56768C577.662 2.56768 487.586 39.893 419.81 107.655C352.034 175.416 314.701 265.473 314.701 361.291C314.701 559.065 475.685 720.015 673.5 720.015C769.339 720.015 859.414 682.69 927.19 614.928C994.966 547.166 1032.3 457.11 1032.3 361.291C1032.3 163.517 871.316 2.56768 673.5 2.56768Z" fill="#F3F5F7"/>
<path d="M673.5 1442.6C474.244 1442.6 312.133 1280.52 312.133 1081.31C312.133 882.092 474.244 720.015 673.5 720.015C770.028 720.015 860.792 757.591 929.007 825.854C997.284 894.116 1034.87 984.799 1034.87 1081.31C1034.87 1280.52 872.756 1442.6 673.5 1442.6ZM673.5 722.583C475.685 722.583 314.701 883.533 314.701 1081.31C314.701 1279.08 475.685 1440.03 673.5 1440.03C871.316 1440.03 1032.3 1279.08 1032.3 1081.31C1032.3 985.488 994.966 895.432 927.19 827.67C859.414 759.908 769.339 722.583 673.5 722.583Z" fill="#F3F5F7"/>
<path d="M985.758 902.884C856.783 902.884 736.703 833.557 672.373 721.957C572.838 549.358 632.346 327.974 804.98 228.524C859.853 196.897 922.116 180.176 985.132 180.176C1114.11 180.176 1234.19 249.503 1298.52 361.104C1398.05 533.702 1338.54 755.023 1165.91 854.536C1111.04 886.163 1048.77 902.884 985.758 902.884ZM985.069 182.744C922.555 182.744 860.73 199.34 806.233 230.715C634.852 329.477 575.782 549.296 674.565 720.641C738.457 831.427 857.66 900.254 985.758 900.254C1048.27 900.254 1110.1 883.658 1164.59 852.282C1335.98 753.52 1395.04 533.702 1296.26 362.356C1232.37 251.57 1113.17 182.681 985.069 182.681V182.744Z" fill="#F3F5F7"/>
<path d="M361.868 1262.42C232.894 1262.42 112.814 1193.09 48.4829 1081.49C0.250508 997.888 -12.528 900.504 12.5279 807.316C37.5837 714.128 97.4044 636.221 181.028 588.061C235.9 556.435 298.164 539.714 361.117 539.714C490.091 539.714 610.171 609.041 674.565 720.641C722.797 804.248 735.513 901.632 710.457 994.82C685.401 1088.01 625.581 1165.85 541.957 1214.07C487.085 1245.7 424.821 1262.42 361.868 1262.42ZM361.179 542.282C298.665 542.282 236.84 558.878 182.344 590.253C99.2836 638.1 39.9013 715.443 15.0334 807.942C-9.83445 900.504 2.81873 997.137 50.6753 1080.18C114.568 1190.97 233.771 1259.79 361.868 1259.79C424.383 1259.79 486.208 1243.2 540.704 1211.82C623.764 1163.97 683.146 1086.63 708.014 994.131C732.882 901.569 720.229 804.936 672.372 721.894C608.48 611.108 489.277 542.282 361.179 542.282Z" fill="#F3F5F7"/>
<path d="M673.5 1448.99L42.9082 357.847H1304.09L673.5 1448.99ZM56.2504 365.55L673.5 1433.58L1290.75 365.55H56.2504Z" fill="#F3F5F7"/>
<path d="M987.261 905.389L354.602 904.951L673.312 353.526L987.324 905.389H987.261ZM367.944 897.248L974.044 897.686L673.249 368.994L367.944 897.248Z" fill="#F3F5F7"/>
<path d="M688.22 721.268C688.22 729.409 681.643 735.985 673.5 735.985C665.357 735.985 658.78 729.409 658.78 721.268C658.78 713.126 665.357 706.55 673.5 706.55C681.643 706.55 688.22 713.126 688.22 721.268Z" fill="#F3F5F7"/>
<path d="M688.22 361.229C688.22 369.37 681.643 375.946 673.5 375.946C665.357 375.946 658.78 369.37 658.78 361.229C658.78 353.087 665.357 346.512 673.5 346.512C681.643 346.512 688.22 353.087 688.22 361.229Z" fill="#F3F5F7"/>
<path d="M688.22 1081.31C688.22 1089.45 681.643 1096.02 673.5 1096.02C665.357 1096.02 658.78 1089.45 658.78 1081.31C658.78 1073.17 665.357 1066.59 673.5 1066.59C681.643 1066.59 688.22 1073.17 688.22 1081.31Z" fill="#F3F5F7"/>
<path d="M688.22 1441.28C688.22 1449.42 681.643 1456 673.5 1456C665.357 1456 658.78 1449.42 658.78 1441.28C658.78 1433.14 665.357 1426.57 673.5 1426.57C681.643 1426.57 688.22 1433.14 688.22 1441.28Z" fill="#F3F5F7"/>
<path d="M1312.11 361.73C1312.11 369.871 1305.53 376.447 1297.39 376.447C1289.25 376.447 1282.67 369.871 1282.67 361.73C1282.67 353.588 1289.25 347.013 1297.39 347.013C1305.53 347.013 1312.11 353.588 1312.11 361.73Z" fill="#F3F5F7"/>
<path d="M64.2682 361.73C64.2682 369.871 57.6911 376.447 49.5479 376.447C41.4048 376.447 34.8276 369.871 34.8276 361.73C34.8276 353.588 41.4048 347.013 49.5479 347.013C57.6911 347.013 64.2682 353.588 64.2682 361.73Z" fill="#F3F5F7"/>
<path d="M995.342 901.506C995.342 909.648 988.765 916.223 980.622 916.223C972.479 916.223 965.901 909.648 965.901 901.506C965.901 893.365 972.479 886.789 980.622 886.789C988.765 886.789 995.342 893.365 995.342 901.506Z" fill="#F3F5F7"/>
<path d="M375.963 901.506C375.963 909.648 369.385 916.223 361.242 916.223C353.099 916.223 346.522 909.648 346.522 901.506C346.522 893.365 353.099 886.789 361.242 886.789C369.385 886.789 375.963 893.365 375.963 901.506Z" fill="#F3F5F7"/>
<path d="M375.963 541.53C375.963 549.671 369.385 556.247 361.242 556.247C353.099 556.247 346.522 549.671 346.522 541.53C346.522 533.389 353.099 526.813 361.242 526.813C369.385 526.813 375.963 533.389 375.963 541.53Z" fill="#F3F5F7"/>
<path d="M1000.17 541.53C1000.17 549.671 993.588 556.247 985.445 556.247C977.302 556.247 970.725 549.671 970.725 541.53C970.725 533.389 977.302 526.813 985.445 526.813C993.588 526.813 1000.17 533.389 1000.17 541.53Z" fill="#F3F5F7"/>
</g>
<defs>
<clipPath id="clip0_1974_4328">
<rect width="1347" height="1456" fill="white"/>
</clipPath>
</defs>
</svg>
