<svg width="19" height="14" viewBox="0 0 19 14" fill="none" xmlns="http://www.w3.org/2000/svg">
<path d="M16.1069 1.17605C14.857 0.617996 13.5368 0.222571 12.1805 0C11.9948 0.320272 11.8281 0.650603 11.6812 0.989376C10.2389 0.784035 8.77343 0.784035 7.33109 0.989376C7.19666 0.681062 6.9947 0.289045 6.83178 0C5.47427 0.220002 4.15314 0.615527 2.90354 1.17605C0.68546 4.22101 -0.317895 7.94608 0.0804868 11.6569C1.53732 12.6966 3.16486 13.4889 4.89399 14C5.28223 13.4905 5.62582 12.9503 5.92111 12.385C5.35821 12.1805 4.81523 11.9276 4.29865 11.6292C4.43308 11.5359 4.56751 11.4335 4.69203 11.3281C6.19583 12.0149 7.8369 12.371 9.4984 12.371C11.1599 12.371 12.801 12.0149 14.3048 11.3281C14.4392 11.4311 14.5637 11.5335 14.6982 11.6292C14.1802 11.9279 13.6358 12.1808 13.0714 12.385C13.3667 12.9503 13.7102 13.4905 14.0985 14C15.8276 13.4902 17.4547 12.6978 18.9101 11.6569C19.3237 7.94778 18.3266 4.21973 16.1069 1.17605ZM6.35166 9.53848C5.87377 9.51141 5.42616 9.30211 5.10612 8.95606C4.78608 8.61002 4.61946 8.15518 4.64247 7.69039C4.62918 7.45975 4.66291 7.22883 4.74172 7.01089C4.82052 6.79296 4.94285 6.59231 5.10168 6.42046C5.2605 6.24862 5.45269 6.10898 5.6672 6.00956C5.88171 5.91013 6.11432 5.85289 6.35166 5.84111C6.58917 5.85195 6.8221 5.9085 7.03695 6.00749C7.2518 6.10648 7.4443 6.24595 7.60328 6.4178C7.76227 6.58965 7.88458 6.79046 7.96313 7.00861C8.04168 7.22675 8.07489 7.45787 8.06086 7.68859C8.08602 8.15408 7.9202 8.61027 7.59978 8.95707C7.27935 9.30387 6.83049 9.51296 6.35166 9.53848ZM12.6606 9.53848C12.1827 9.51141 11.735 9.30213 11.4149 8.9561C11.0947 8.61007 10.928 8.15524 10.9508 7.69039C10.9379 7.45987 10.9719 7.22912 11.0509 7.01139C11.1298 6.79366 11.2523 6.59323 11.4111 6.4216C11.57 6.24996 11.7621 6.11049 11.9765 6.01119C12.191 5.91188 12.4234 5.8547 12.6606 5.84292C12.8983 5.85344 13.1315 5.90977 13.3467 6.00862C13.5618 6.10748 13.7546 6.2469 13.9139 6.41878C14.0731 6.59066 14.1956 6.79158 14.2743 7.00988C14.353 7.22817 14.3863 7.45949 14.3723 7.69039C14.3854 7.92113 14.3515 8.15212 14.2724 8.37006C14.1934 8.58801 14.0708 8.78862 13.9118 8.96037C13.7527 9.13211 13.5603 9.2716 13.3456 9.37081C13.1308 9.47002 12.8981 9.527 12.6606 9.53848Z" fill="#F3F5F7"/>
</svg>
