<svg width="17" height="14" viewBox="0 0 17 14" fill="none" xmlns="http://www.w3.org/2000/svg">
<path d="M5.2853 14.0018C6.59595 14.0121 7.89554 13.7587 9.10838 13.2566C10.3212 12.7544 11.4231 12.0134 12.3498 11.0767C13.2765 10.14 14.0096 9.02631 14.5063 7.80054C15.003 6.57477 15.2535 5.26138 15.2431 3.93685V3.479C15.9259 2.9728 16.5198 2.35431 17 1.64933C16.3682 1.94313 15.6943 2.1339 15.0033 2.21455C15.7372 1.77103 16.2862 1.07271 16.5478 0.250017C15.861 0.653327 15.115 0.943306 14.3378 1.10902C13.6998 0.42832 12.8219 0.0295284 11.8946 -0.000709981C10.9674 -0.0309483 10.0658 0.309809 9.3857 0.947527C8.93821 1.36787 8.60882 1.90045 8.43101 2.49113C8.2532 3.08182 8.23331 3.70954 8.37335 4.31052C6.98437 4.24149 5.62531 3.87786 4.3845 3.24327C3.14369 2.60867 2.0489 1.71731 1.1713 0.627119C0.72232 1.40393 0.585231 2.32518 0.788274 3.20108C0.991317 4.07699 1.51903 4.84085 2.2627 5.3353C1.70533 5.31398 1.15969 5.16725 0.66555 4.9058V4.95992C0.665555 5.77515 0.943585 6.56547 1.45281 7.19774C1.96203 7.83002 2.67132 8.26561 3.4612 8.43114C2.94848 8.56978 2.41116 8.588 1.8904 8.4844C2.11454 9.18731 2.551 9.80157 3.13844 10.2408C3.72588 10.6801 4.43476 10.9223 5.16545 10.9334C3.93035 11.9197 2.39949 12.4512 0.82535 12.4401C0.5593 12.4401 0.26605 12.4126 0 12.386C1.56747 13.4456 3.41225 14.0082 5.29805 14.0018" fill="#F3F5F7"/>
</svg>
