<svg width="303" height="50" viewBox="0 0 303 50" fill="none" xmlns="http://www.w3.org/2000/svg">
<path d="M234.341 30.5251H229.084C228.677 30.5147 228.291 30.3492 228.003 30.0626C227.715 29.7761 227.549 29.3904 227.539 28.9852V27.7534C227.549 27.3483 227.715 26.9626 228.003 26.6761C228.291 26.3895 228.677 26.2239 229.084 26.2136H233.578C233.988 26.2136 234.381 26.0513 234.671 25.7625C234.961 25.4738 235.124 25.0821 235.124 24.6737C235.124 24.2653 234.961 23.8736 234.671 23.5848C234.381 23.2961 233.988 23.1338 233.578 23.1338H229.043C228.636 23.1235 228.25 22.9578 227.962 22.6713C227.674 22.3847 227.508 21.9991 227.497 21.594V20.3621C227.508 19.957 227.674 19.5713 227.962 19.2847C228.25 18.9981 228.636 18.8326 229.043 18.8222H234.196C234.607 18.8222 234.999 18.66 235.29 18.3712C235.579 18.0824 235.742 17.6908 235.742 17.2824C235.742 16.874 235.579 16.4823 235.29 16.1936C234.999 15.9047 234.607 15.7425 234.196 15.7425H228.013C227.772 15.7376 227.537 15.8172 227.348 15.9673C227.159 16.1173 227.03 16.3284 226.982 16.5638L223.684 32.065V32.3729C223.742 32.7328 223.932 33.0582 224.219 33.286C224.504 33.5137 224.865 33.6273 225.23 33.6048H234.299C234.71 33.6048 235.102 33.4426 235.393 33.1539C235.682 32.865 235.845 32.4734 235.845 32.065C235.845 31.6566 235.682 31.2649 235.393 30.9762C235.102 30.6873 234.71 30.5251 234.299 30.5251H234.341Z" fill="#F3F5F7"/>
<path d="M119.943 15.8451H117.881C117.578 15.8489 117.282 15.9376 117.027 16.101C116.771 16.2644 116.568 16.4958 116.439 16.7691L111.904 27.6507C111.904 27.6779 111.893 27.7041 111.874 27.7233C111.854 27.7426 111.829 27.7533 111.801 27.7533C111.698 27.7533 111.698 27.7533 111.698 27.6507L107.163 16.7691C107.053 16.4913 106.876 16.2447 106.648 16.0504C106.236 15.7425 105.72 16.1531 105.617 16.6664L102.216 32.3729C102.189 32.5507 102.225 32.7324 102.319 32.8862C102.443 33.1344 102.634 33.343 102.871 33.4882C103.108 33.6334 103.381 33.7094 103.659 33.7075H104.277C104.677 33.6869 105.053 33.5169 105.333 33.2313C105.612 32.9458 105.772 32.5659 105.782 32.1676V22.1072C105.782 22.08 105.793 22.0538 105.812 22.0347C105.832 22.0154 105.857 22.0046 105.885 22.0046C105.913 22.0046 105.939 22.0154 105.958 22.0347C105.977 22.0538 105.988 22.08 105.988 22.1072L110.214 32.6809C110.326 32.9666 110.526 33.2096 110.785 33.3755C111.044 33.5413 111.349 33.6217 111.657 33.6048H112.069C112.372 33.6009 112.669 33.5123 112.923 33.3489C113.179 33.1856 113.382 32.9542 113.512 32.6809L117.737 22.2099C117.737 22.1827 117.748 22.1566 117.767 22.1373C117.787 22.118 117.812 22.1072 117.84 22.1072C117.868 22.1072 117.894 22.118 117.913 22.1373C117.932 22.1566 117.943 22.1827 117.943 22.2099V32.1676C117.954 32.5727 118.12 32.9584 118.408 33.245C118.696 33.5314 119.082 33.6971 119.489 33.7075H120.108C120.515 33.6971 120.901 33.5314 121.189 33.245C121.477 32.9584 121.643 32.5727 121.653 32.1676V17.385C121.582 16.9745 121.376 16.5995 121.066 16.3202C120.755 16.041 120.36 15.8736 119.943 15.8451Z" fill="#F3F5F7"/>
<path d="M167.145 24.1605H162.61C162.228 24.1605 161.861 24.3118 161.59 24.5814C161.319 24.8509 161.167 25.2164 161.167 25.5976C161.167 25.9788 161.319 26.3443 161.59 26.6139C161.861 26.8834 162.228 27.0348 162.61 27.0348H163.435C164.259 27.0348 165.083 27.7534 164.671 28.5746C164.053 29.9092 162.816 30.6277 160.858 30.6277C157.972 30.6277 156.22 28.472 156.22 24.7764C156.22 21.0807 158.075 18.9249 160.858 18.9249C161.503 18.8917 162.146 19.0255 162.724 19.3134C163.303 19.6012 163.795 20.0333 164.156 20.5674C164.317 20.8667 164.554 21.1189 164.843 21.299C165.133 21.479 165.464 21.5808 165.805 21.594H166.732C166.941 21.6109 167.151 21.5769 167.343 21.495C167.535 21.4132 167.704 21.2859 167.836 21.1242C167.968 20.9624 168.059 20.7712 168.1 20.5668C168.141 20.3625 168.131 20.1513 168.072 19.9515C167.429 18.6056 166.402 17.4786 165.119 16.7116C163.834 15.9447 162.353 15.5719 160.858 15.6398C156.117 15.6398 152.51 19.0275 152.51 24.7764C152.51 30.5251 155.911 33.9129 160.961 33.9129C165.496 33.9129 168.691 31.0384 168.691 26.4189V25.7002C168.695 25.4969 168.658 25.2947 168.581 25.1061C168.505 24.9173 168.392 24.7459 168.247 24.6021C168.103 24.4583 167.931 24.3449 167.741 24.2691C167.552 24.1932 167.349 24.1562 167.145 24.1605Z" fill="#F3F5F7"/>
<path d="M140.349 16.8718C140.243 16.5738 140.048 16.3155 139.79 16.1319C139.532 15.9482 139.223 15.8481 138.906 15.8451H136.226C135.909 15.8481 135.601 15.9482 135.342 16.1319C135.084 16.3155 134.89 16.5738 134.784 16.8718L129.63 31.6544C129.553 31.8854 129.532 32.1313 129.567 32.3724C129.602 32.6134 129.693 32.8429 129.834 33.0425C129.974 33.2421 130.159 33.4061 130.375 33.5217C130.589 33.6371 130.829 33.7007 131.073 33.7075H131.898C132.215 33.7045 132.523 33.6044 132.782 33.4207C133.04 33.2371 133.235 32.9787 133.341 32.6809L133.959 30.7304C134.065 30.4325 134.26 30.1743 134.518 29.9906C134.776 29.807 135.084 29.7069 135.402 29.7038H139.627C139.945 29.7069 140.253 29.807 140.512 29.9906C140.769 30.1743 140.964 30.4325 141.07 30.7304L141.689 32.6809C141.795 32.9787 141.99 33.2371 142.247 33.4207C142.506 33.6044 142.814 33.7045 143.132 33.7075H143.956C144.2 33.7007 144.44 33.6371 144.655 33.5217C144.87 33.4061 145.056 33.2421 145.196 33.0425C145.336 32.8429 145.428 32.6134 145.463 32.3724C145.498 32.1313 145.476 31.8854 145.399 31.6544L140.349 16.8718ZM137.731 26.6242H137.422C137.178 26.6174 136.938 26.5537 136.722 26.4383C136.508 26.3228 136.322 26.1587 136.182 25.9592C136.042 25.7596 135.95 25.5301 135.915 25.2891C135.88 25.048 135.902 24.8021 135.979 24.571L137.525 19.8487C137.525 19.8216 137.536 19.7954 137.555 19.7761C137.574 19.757 137.6 19.7461 137.628 19.7461C137.656 19.7461 137.682 19.757 137.701 19.7761C137.72 19.7954 137.731 19.8216 137.731 19.8487L139.277 24.571C139.333 24.8093 139.336 25.0569 139.285 25.2963C139.236 25.5358 139.133 25.7614 138.985 25.9572C138.838 26.1529 138.649 26.3142 138.433 26.4294C138.215 26.5446 137.976 26.611 137.731 26.6242Z" fill="#F3F5F7"/>
<path d="M179.1 15.8451H178.378C177.971 15.8555 177.585 16.0211 177.297 16.3077C177.009 16.5943 176.843 16.9799 176.833 17.385V32.1676C176.843 32.5727 177.009 32.9584 177.297 33.245C177.585 33.5314 177.971 33.6971 178.378 33.7075H179.1C179.507 33.6971 179.893 33.5314 180.181 33.245C180.47 32.9584 180.635 32.5727 180.646 32.1676V17.385C180.619 16.9853 180.448 16.6088 180.163 16.3256C179.879 16.0424 179.501 15.8717 179.1 15.8451Z" fill="#F3F5F7"/>
<path d="M197.135 18.9249C197.83 18.9059 198.518 19.0661 199.132 19.3898C199.745 19.7136 200.265 20.19 200.64 20.7728C200.772 21.1303 201.012 21.4392 201.324 21.6591C201.637 21.8789 202.009 21.9994 202.392 22.0046H203.113C203.321 22.0215 203.531 21.9875 203.723 21.9057C203.916 21.8238 204.085 21.6965 204.217 21.5348C204.349 21.3731 204.439 21.1818 204.481 20.9774C204.522 20.7732 204.513 20.5619 204.453 20.3621C203.422 17.2824 200.64 15.5372 197.032 15.5372C192.292 15.5372 188.684 18.8222 188.684 24.6737C188.684 30.5251 192.189 33.8101 197.032 33.8101C200.846 33.8101 203.422 31.757 204.35 29.1906C204.41 28.9908 204.419 28.7795 204.378 28.5753C204.336 28.3709 204.246 28.1796 204.114 28.018C203.982 27.8562 203.813 27.7289 203.62 27.647C203.428 27.5651 203.218 27.5312 203.01 27.5481H202.185C201.81 27.5811 201.451 27.7124 201.142 27.9288C200.835 28.1451 200.59 28.4389 200.433 28.7799C200.09 29.3679 199.591 29.8508 198.992 30.1765C198.392 30.5022 197.715 30.6584 197.032 30.6278C194.353 30.6278 192.498 28.5746 192.498 24.7764C192.498 20.9781 194.353 18.9249 197.135 18.9249Z" fill="#F3F5F7"/>
<path d="M250.521 15.8451H245.677C245.27 15.8555 244.884 16.0211 244.596 16.3077C244.308 16.5943 244.142 16.9799 244.131 17.385V32.1676C244.142 32.5727 244.308 32.9584 244.596 33.245C244.884 33.5314 245.27 33.6971 245.677 33.7075H250.521C255.983 33.7075 259.281 30.3198 259.281 24.7763C259.281 19.2328 255.88 15.8451 250.521 15.8451ZM250.315 30.4225H249.491C249.084 30.4121 248.697 30.2464 248.41 29.9599C248.121 29.6733 247.955 29.2877 247.945 28.8826V20.5674C247.955 20.1623 248.121 19.7766 248.41 19.49C248.697 19.2034 249.084 19.0379 249.491 19.0275H250.315C253.716 19.0275 255.468 20.7727 255.468 24.6736C255.468 28.5746 253.716 30.4225 250.315 30.4225Z" fill="#F3F5F7"/>
<path d="M277.832 30.5252H272.576C272.169 30.5147 271.783 30.3492 271.495 30.0627C271.207 29.7761 271.041 29.3905 271.03 28.9853V27.7534C271.041 27.3483 271.207 26.9627 271.495 26.6761C271.783 26.3895 272.169 26.2239 272.576 26.2136H277.111C277.521 26.2136 277.914 26.0513 278.205 25.7626C278.494 25.4738 278.657 25.0821 278.657 24.6737C278.657 24.2653 278.494 23.8736 278.205 23.5848C277.914 23.2961 277.521 23.1338 277.111 23.1338H272.576C272.169 23.1235 271.783 22.9579 271.495 22.6713C271.207 22.3847 271.041 21.9991 271.03 21.594V20.3621C271.041 19.957 271.207 19.5713 271.495 19.2847C271.783 18.9982 272.169 18.8327 272.576 18.8222H277.729C278.14 18.8222 278.532 18.6601 278.823 18.3712C279.112 18.0824 279.275 17.6908 279.275 17.2824C279.275 16.874 279.112 16.4823 278.823 16.1936C278.532 15.9047 278.14 15.7426 277.729 15.7426H268.763C268.356 15.753 267.969 15.9185 267.682 16.2051C267.393 16.4916 267.227 16.8772 267.217 17.2824V32.0651C267.227 32.4702 267.393 32.8558 267.682 33.1423C267.969 33.4289 268.356 33.5944 268.763 33.6048H277.832C278.24 33.5944 278.626 33.4289 278.914 33.1423C279.202 32.8558 279.368 32.4702 279.378 32.0651C279.383 31.8616 279.345 31.6595 279.269 31.4708C279.193 31.282 279.08 31.1107 278.935 30.9668C278.791 30.823 278.619 30.7097 278.429 30.6338C278.24 30.558 278.037 30.521 277.832 30.5252Z" fill="#F3F5F7"/>
<path d="M301.124 15.8451H300.403C299.996 15.8555 299.609 16.0211 299.322 16.3077C299.033 16.5943 298.867 16.9799 298.857 17.385V26.9321C298.857 27.0348 298.857 27.0348 298.754 27.0348H298.651L291.436 16.5637C291.296 16.3681 291.111 16.2097 290.895 16.1024C290.68 15.995 290.441 15.9419 290.2 15.9478H289.231C288.824 15.9582 288.437 16.1237 288.15 16.4103C287.861 16.6969 287.695 17.0825 287.685 17.4877V32.2703C287.695 32.6754 287.861 33.061 288.15 33.3476C288.437 33.6342 288.824 33.7997 289.231 33.8101H289.952C290.359 33.7997 290.746 33.6342 291.034 33.3476C291.322 33.061 291.488 32.6754 291.498 32.2703V22.6205C291.498 22.5933 291.51 22.5672 291.528 22.5479C291.548 22.5286 291.574 22.5178 291.601 22.5178H291.704L299.022 32.9888C299.162 33.1845 299.347 33.3429 299.563 33.4503C299.778 33.5577 300.017 33.6107 300.259 33.6048H301.186C301.593 33.5944 301.98 33.4288 302.267 33.1423C302.556 32.8557 302.722 32.4701 302.732 32.065V17.2824C302.662 16.8991 302.466 16.5498 302.175 16.2896C301.884 16.0294 301.515 15.873 301.124 15.8451Z" fill="#F3F5F7"/>
<path d="M57.7246 12.5909L62.4963 18.2576C63.0425 18.8941 63.5269 19.4176 63.7228 19.7153C65.1498 21.1488 65.95 23.086 65.9489 25.1048C65.8149 27.4865 64.2793 29.1084 62.857 30.8433L59.5179 34.8059L57.7761 36.8591C57.7137 36.9298 57.6734 37.0173 57.6602 37.1107C57.6471 37.2041 57.6617 37.2992 57.7023 37.3844C57.7428 37.4696 57.8076 37.541 57.8885 37.59C57.9694 37.6389 58.0628 37.6631 58.1574 37.6598H75.5645C78.2235 37.6598 81.573 39.9182 81.3771 43.347C81.3717 44.9053 80.7477 46.3984 79.6415 47.5003C78.5352 48.6023 77.0363 49.2238 75.4717 49.2292H48.212C46.4188 49.2292 41.5955 49.4243 40.2454 45.2667C39.9583 44.3978 39.919 43.4668 40.132 42.577C40.5245 41.2615 41.1453 40.0245 41.9665 38.9224C43.3372 36.8693 44.8213 34.8162 46.2848 32.8246C48.1708 30.2171 50.1084 27.6918 52.015 25.0329C52.0827 24.9464 52.1195 24.8398 52.1195 24.7301C52.1195 24.6204 52.0827 24.5139 52.015 24.4273L45.0893 16.2147C45.0441 16.1552 44.9857 16.1069 44.9186 16.0736C44.8516 16.0404 44.7777 16.0231 44.7028 16.0231C44.6279 16.0231 44.554 16.0404 44.487 16.0736C44.4199 16.1069 44.3615 16.1552 44.3163 16.2147C42.4612 18.7093 34.34 29.7552 32.6086 31.9931C30.8771 34.231 26.6104 34.3542 24.2503 31.9931L13.4186 21.1628C13.3494 21.0936 13.2611 21.0465 13.165 21.0274C13.0689 21.0082 12.9692 21.018 12.8787 21.0554C12.7881 21.0928 12.7107 21.1561 12.6564 21.2374C12.6021 21.3186 12.5733 21.4142 12.5735 21.5118V42.3409C12.5989 43.8191 12.1596 45.268 11.3167 46.4849C10.474 47.7017 9.27015 48.6254 7.87388 49.1266C6.98168 49.4358 6.02826 49.5282 5.09287 49.3959C4.15759 49.2636 3.26766 48.9105 2.49717 48.366C1.72669 47.8217 1.09801 47.1016 0.663611 46.266C0.229311 45.4304 0.00175204 44.5035 0 43.5625V6.11323C0.0621459 4.76365 0.549626 3.46792 1.39328 2.4101C2.23694 1.35229 3.39381 0.58625 4.69959 0.22073C5.81966 -0.0764788 6.99868 -0.0734998 8.11721 0.229375C9.23573 0.532188 10.254 1.12427 11.0688 1.94542L27.7235 18.5553C27.7734 18.6057 27.8336 18.6447 27.9003 18.6693C27.9669 18.6939 28.0382 18.7036 28.109 18.6977C28.1798 18.6919 28.2485 18.6705 28.3101 18.6353C28.3717 18.6 28.4247 18.5517 28.4655 18.4936L40.2969 2.18146C40.8437 1.51927 41.5291 0.984167 42.3054 0.613542C43.0816 0.242917 43.9297 0.0458341 44.7904 0.0359383H75.5645C76.4067 0.0373966 77.2389 0.217813 78.0054 0.565313C78.772 0.912917 79.4551 1.41948 80.0093 2.05115C80.5635 2.68281 80.9758 3.42511 81.2188 4.22833C81.4619 5.03156 81.5299 5.87719 81.4184 6.70865C81.2015 8.15104 80.4668 9.46625 79.3505 10.4101C78.2342 11.354 76.8121 11.8626 75.3481 11.8416H58.1162C58.0297 11.8436 57.9452 11.8689 57.8717 11.9145C57.7982 11.9601 57.7383 12.0246 57.6983 12.101C57.6583 12.1776 57.6397 12.2634 57.6443 12.3496C57.6489 12.4357 57.6767 12.5191 57.7246 12.5909Z" fill="#F3F5F7"/>
</svg>
