<svg width="679" height="119" viewBox="0 0 679 119" fill="none" xmlns="http://www.w3.org/2000/svg">
<g clip-path="url(#clip0_23_1278)">
<path d="M0 13.0674V0H42.2049C46.4584 0 49.9879 1.67703 52.7933 5.03108C54.8971 7.50259 56.0429 10.6477 56.022 13.8932V22.755C56.022 27.0107 54.3699 30.5403 51.0656 33.3438C48.6143 35.4897 45.4627 36.6647 42.2049 36.6472H13.8175V56.6986H0V23.5805H42.2049V13.0674H0Z" fill="#FFFF00"/>
<path d="M102.882 34.8448H75.7717C71.4656 34.8448 67.936 33.1677 65.1829 29.8137C63.0877 27.3669 61.9417 24.2485 61.9542 21.0272V13.8932C61.9542 9.63819 63.6064 6.10859 66.9107 3.30438C69.3618 1.15795 72.5137 -0.0174277 75.7717 -5.42598e-05H116.7V13.0673H75.7717V21.7785H102.882C107.188 21.7785 110.717 23.4555 113.471 26.8095C115.566 29.2563 116.712 32.3747 116.7 35.596V42.88C116.7 47.1871 115.023 50.7167 111.669 53.4688C109.222 55.5645 106.104 56.7108 102.882 56.6986H61.9542V43.6312H102.882V34.8448Z" fill="#FFFF00"/>
<path d="M180.01 0L157.33 32.8925V56.6986H143.513V32.8925L120.833 0H137.655L150.421 18.4741L163.187 0H180.01Z" fill="#FFFF00"/>
<path d="M221.687 35.8213H235.505V42.8057C235.505 47.1119 233.828 50.6414 230.474 53.3942C228.027 55.4894 224.908 56.6354 221.687 56.6232H193.074C188.768 56.6232 185.239 54.9462 182.486 51.5922C180.39 49.1456 179.244 46.0271 179.257 42.8057V13.8932C179.257 9.63819 180.909 6.10859 184.213 3.30437C186.665 1.15815 189.816 -0.017199 193.074 -5.92942e-05H221.687C225.941 -5.92942e-05 229.47 1.67697 232.276 5.03102C234.38 7.50262 235.525 10.6476 235.505 13.8932V20.8019H221.687V13.0673H193.074V43.5566H221.687V35.8213Z" fill="#FFFF00"/>
<path d="M241.437 0H255.254V56.6986H241.437V0ZM283.642 21.7785V0H297.534V56.6986H283.642V34.8448H262.089V21.7785H283.642Z" fill="#FFFF00"/>
<path d="M356.635 56.6236H317.284C312.978 56.6236 309.448 54.9466 306.695 51.5925C304.6 49.1458 303.454 46.0274 303.466 42.8061V13.8932C303.466 9.63819 305.119 6.10859 308.423 3.30438C310.874 1.15809 314.026 -0.0172644 317.284 -5.78628e-05H355.884V13.0673H317.284V21.7784H355.133V34.8447H317.284V43.5566H356.635V56.6236Z" fill="#FFFF00"/>
<path d="M363.317 13.0674V0H404.771C409.025 0 412.555 1.67703 415.36 5.03108C417.464 7.50268 418.61 10.6477 418.589 13.8932V42.8058C418.589 47.1119 416.912 50.6414 413.558 53.3942C411.111 55.4891 407.993 56.6351 404.771 56.6233H376.384V56.6986H362.567V20.802H376.384V43.5566H404.771V13.0674H363.317Z" fill="#FFFF00"/>
<path d="M477.691 56.6236H438.339C434.033 56.6236 430.503 54.9466 427.75 51.5925C425.655 49.1459 424.509 46.0274 424.522 42.8061V13.8932C424.522 9.63819 426.174 6.10859 429.478 3.30438C431.929 1.15809 435.081 -0.0172644 438.339 -5.78628e-05H476.939V13.0673H438.339V21.7784H476.188V34.8447H438.339V43.5566H477.691V56.6236Z" fill="#FFFF00"/>
<path d="M483.622 0H497.44V43.6313H536.04V56.6986H497.44C493.134 56.6986 489.604 55.0213 486.851 51.6665C484.755 49.22 483.609 46.1014 483.622 42.88V0Z" fill="#FFFF00"/>
<path d="M541.972 0H555.79V56.6986H541.972V0Z" fill="#FFFF00"/>
<path d="M604.152 35.8213H617.969V42.8057C617.969 47.1119 616.292 50.6414 612.938 53.3942C610.492 55.4894 607.373 56.6354 604.152 56.6232H575.539C571.233 56.6232 567.704 54.9462 564.951 51.5922C562.855 49.1454 561.709 46.027 561.722 42.8057V13.8932C561.722 9.63819 563.374 6.10859 566.678 3.30438C569.129 1.15809 572.281 -0.0172644 575.539 -5.78628e-05H604.152C608.405 -5.78628e-05 611.935 1.67697 614.74 5.03102C616.844 7.5025 617.99 10.6476 617.969 13.8932V20.8019H604.152V13.0673H575.539V43.5566H604.152V35.8213Z" fill="#FFFF00"/>
<path d="M664.83 34.8448H637.719C633.413 34.8448 629.883 33.1677 627.131 29.8137C625.035 27.3671 623.889 24.2486 623.901 21.0272V13.8932C623.901 9.63819 625.554 6.10859 628.858 3.30438C631.309 1.158 634.461 -0.0173624 637.719 -5.57053e-05H678.647V13.0673H637.719V21.7785H664.83C669.135 21.7785 672.664 23.4555 675.418 26.8095C677.513 29.2563 678.659 32.3747 678.647 35.596V42.88C678.647 47.1871 676.97 50.7167 673.616 53.4688C671.169 55.5645 668.051 56.7108 664.83 56.6986H623.901V43.6312H664.83V34.8448Z" fill="#FFFF00"/>
<path d="M0 118.366L9.97166 92.4929H16.7222L10.4861 108.737H16.2431L15.1123 105.823L18.4701 97.0507L26.6946 118.366H19.9098L18.504 114.733H8.1549L6.74906 118.366H0Z" fill="#FFFF00"/>
<path d="M88.4369 101.643V118.366H82.1323V92.4929H89.8082L101.391 109.216V92.4929H107.73V118.332L107.766 118.368H100.055L88.4369 101.643Z" fill="#FFFF00"/>
<path d="M163.716 112.028V98.8348C163.727 97.1626 164.394 95.5615 165.573 94.3759C166.753 93.1903 168.35 92.5148 170.022 92.4948H183.078C184.006 92.4808 184.924 92.6807 185.762 93.079C186.599 93.4773 187.334 94.0633 187.909 94.7914C188.869 95.9188 189.392 97.3538 189.383 98.8348V112.028C189.402 112.956 189.205 113.876 188.806 114.714C188.408 115.553 187.819 116.287 187.087 116.858C185.971 117.815 184.548 118.338 183.078 118.332H170.022C169.094 118.351 168.174 118.154 167.335 117.755C166.497 117.357 165.763 116.768 165.192 116.036C164.235 114.92 163.711 113.498 163.716 112.028ZM170.022 98.4581V112.37H183.078V98.4563L170.022 98.4581Z" fill="#FFFF00"/>
<path d="M251.641 101.643V118.366H245.336V92.4929H253.014L264.596 109.216V92.4929H270.936V118.332L270.972 118.368H263.262L251.641 101.643Z" fill="#FFFF00"/>
<path d="M353.253 92.4929L342.904 107.503V118.366H336.6V107.503L326.25 92.4929H333.926L339.752 100.923L345.577 92.4929H353.253Z" fill="#FFFF00"/>
<path d="M430.982 118.366V101.676L425.191 109.97H417.513L411.688 101.643V118.366H405.383V92.4929H413.058L421.351 104.419L429.642 92.4929H437.318L437.284 92.5272V118.366H430.982Z" fill="#FFFF00"/>
<path d="M490.121 112.028V98.8348C490.132 97.1627 490.798 95.5616 491.977 94.376C493.157 93.1904 494.754 92.5149 496.426 92.4948H509.484C510.412 92.4808 511.33 92.6807 512.168 93.079C513.005 93.4773 513.74 94.0633 514.315 94.7914C515.274 95.9191 515.797 97.354 515.787 98.8348V112.028C515.806 112.956 515.609 113.876 515.21 114.714C514.812 115.553 514.223 116.287 513.492 116.858C512.375 117.815 510.952 118.338 509.483 118.332H496.426C495.498 118.352 494.578 118.154 493.739 117.755C492.901 117.357 492.167 116.768 491.596 116.036C490.639 114.92 490.116 113.498 490.121 112.028ZM496.426 98.4581V112.37H509.484V98.4563L496.426 98.4581Z" fill="#FFFF00"/>
<path d="M597.406 92.4929V112.028C597.42 112.955 597.22 113.874 596.822 114.711C596.423 115.549 595.837 116.284 595.109 116.858C593.982 117.819 592.547 118.342 591.066 118.332H578.009C577.081 118.351 576.161 118.154 575.323 117.755C574.484 117.356 573.75 116.768 573.179 116.036C572.223 114.919 571.699 113.496 571.705 112.026V92.4929H578.009V112.368H591.066V92.4929H597.406Z" fill="#FFFF00"/>
<path d="M672.341 108.394H659.97C659.042 108.413 658.122 108.215 657.284 107.817C656.445 107.418 655.711 106.83 655.14 106.098C654.184 104.981 653.661 103.558 653.666 102.088V98.8346C653.677 97.1626 654.344 95.5619 655.523 94.3763C656.702 93.1908 658.3 92.5152 659.971 92.4946H678.648V98.4561H659.971V102.431H672.342C673.271 102.412 674.19 102.61 675.029 103.008C675.867 103.406 676.601 103.995 677.173 104.726C678.129 105.843 678.652 107.266 678.647 108.737V112.06C678.666 112.988 678.468 113.908 678.069 114.747C677.671 115.585 677.082 116.319 676.35 116.891C675.234 117.847 673.811 118.37 672.341 118.364H653.665V112.403H672.341V108.394Z" fill="#FFFF00"/>
</g>
<defs>
<clipPath id="clip0_23_1278">
<rect width="678.647" height="118.366" fill="white"/>
</clipPath>
</defs>
</svg>
