<svg width="1240" height="1240" viewBox="0 0 1240 1240" fill="none" xmlns="http://www.w3.org/2000/svg">
<g clip-path="url(#clip0_1979_4649)">
<path d="M620 1240C454.355 1240 298.692 1175.49 181.572 1058.43C64.5059 941.308 0 785.592 0 620C0 454.408 64.5059 298.692 181.572 181.572C298.692 64.5059 454.408 0 620 0C785.592 0 941.308 64.5059 1058.43 181.572C1175.55 298.692 1240 454.355 1240 620C1240 785.645 1175.49 941.308 1058.43 1058.43C941.308 1175.55 785.645 1240 620 1240ZM620 8.70697C282.923 8.70697 8.70697 282.923 8.70697 620C8.70697 957.077 282.923 1231.29 620 1231.29C957.077 1231.29 1231.29 957.077 1231.29 620C1231.29 282.923 957.077 8.70697 620 8.70697Z" fill="white"/>
<path d="M620 1216.91C460.567 1216.91 310.637 1154.79 197.924 1042.08C85.1584 929.363 23.0947 779.433 23.0947 620C23.0947 460.567 85.2115 310.637 197.924 197.924C310.637 85.1584 460.567 23.0947 620 23.0947C779.433 23.0947 929.363 85.2115 1042.08 197.924C1154.84 310.69 1216.91 460.567 1216.91 620C1216.91 779.433 1154.79 929.363 1042.08 1042.08C929.31 1154.84 779.433 1216.91 620 1216.91ZM620 25.2184C292.055 25.2715 25.2715 292.055 25.2715 620C25.2715 947.945 292.055 1214.73 620.053 1214.73C948.051 1214.73 1214.78 947.945 1214.78 620C1214.78 292.055 947.945 25.2715 620 25.2715V25.2184Z" fill="white"/>
<path d="M1200.08 793.874H39.9247L45.1276 786.919L620 16.8831L1200.02 793.874H1200.08ZM57.3386 785.167H1182.71L620 31.4301L57.2855 785.167H57.3386Z" fill="white"/>
<path d="M1009.48 1081.84H230.522L620 442.091L1009.48 1081.84ZM246.025 1073.13H993.975L620 458.815L246.025 1073.13Z" fill="white"/>
<path d="M620 680.843L229.62 158.159H1010.43L620.053 680.843H620ZM246.981 166.866L620 666.349L993.019 166.866H246.981Z" fill="white"/>
<path d="M620 1079.93L248.096 346.845H991.692L620 1079.93ZM251.653 349.022L620 1075.1L988.135 349.022H251.653Z" fill="white"/>
<path d="M620 874.413L619.044 872.555L436.517 519.392H803.696L802.9 520.985L620 874.413ZM440.127 521.569L620 869.688L800.139 521.569H440.127Z" fill="white"/>
<path d="M830.242 674.684H409.759L410.82 672.985L620 345.624L620.903 347.058L830.188 674.631L830.242 674.684ZM413.74 672.507H826.26L620 349.712L413.687 672.507H413.74Z" fill="white"/>
<path d="M982.083 873.139H257.811L258.608 871.547L620.319 160.07L621.274 161.981L982.083 873.139ZM261.368 870.963H978.525L620.319 164.901L261.368 870.963Z" fill="white"/>
<path d="M620 1223.12L39.9247 446.126H1200.02L1194.82 453.081L619.947 1223.12H620ZM57.2855 454.833L620 1208.57L1182.66 454.833H57.2855Z" fill="white"/>
<path d="M620 796.953L460.089 576.04L779.592 575.669L620 796.953ZM477.131 584.747L619.947 782.088L762.55 584.376L477.131 584.694V584.747Z" fill="white"/>
<path d="M608.214 24.1565C608.214 30.6867 613.47 35.9428 620 35.9428C626.53 35.9428 631.786 30.6867 631.786 24.1565C631.786 17.6263 626.53 12.3702 620 12.3702C613.47 12.3702 608.214 17.6794 608.214 24.1565Z" fill="white"/>
<path d="M1179.58 789.52C1179.58 796.051 1184.84 801.307 1191.37 801.307C1197.9 801.307 1203.15 796.051 1203.15 789.52C1203.15 782.99 1197.9 777.734 1191.37 777.734C1184.84 777.734 1179.58 782.99 1179.58 789.52Z" fill="white"/>
<path d="M36.8453 789.52C36.8453 796.051 42.1014 801.307 48.6316 801.307C55.1618 801.307 60.4179 796.051 60.4179 789.52C60.4179 782.99 55.1618 777.734 48.6316 777.734C42.1014 777.734 36.8453 782.99 36.8453 789.52Z" fill="white"/>
<path d="M238.061 347.96C238.061 354.491 243.317 359.747 249.848 359.747C256.378 359.747 261.634 354.491 261.634 347.96C261.634 341.43 256.378 336.174 249.848 336.174C243.317 336.174 238.061 341.43 238.061 347.96Z" fill="white"/>
<path d="M978.101 347.96C978.101 354.491 983.357 359.747 989.887 359.747C996.417 359.747 1001.67 354.491 1001.67 347.96C1001.67 341.43 996.364 336.174 989.887 336.174C983.41 336.174 978.101 341.43 978.101 347.96Z" fill="white"/>
<path d="M608.214 347.642C608.214 354.172 613.47 359.428 620 359.428C626.53 359.428 631.786 354.172 631.786 347.642C631.786 341.112 626.53 335.855 620 335.855C613.47 335.855 608.214 341.165 608.214 347.642Z" fill="white"/>
<path d="M608.214 162.512C608.214 169.043 613.47 174.299 620 174.299C626.53 174.299 631.786 169.043 631.786 162.512C631.786 155.982 626.53 150.726 620 150.726C613.47 150.726 608.214 156.035 608.214 162.512Z" fill="white"/>
<path d="M712.273 162.512C712.273 169.043 717.582 174.299 724.059 174.299C730.536 174.299 735.845 169.043 735.845 162.512C735.845 155.982 730.589 150.726 724.059 150.726C717.529 150.726 712.273 156.035 712.273 162.512Z" fill="white"/>
<path d="M504.898 162.512C504.898 169.043 510.154 174.299 516.684 174.299C523.215 174.299 528.471 169.043 528.471 162.512C528.471 155.982 523.215 150.726 516.684 150.726C510.154 150.726 504.898 156.035 504.898 162.512Z" fill="white"/>
<path d="M608.214 450.214C608.214 456.744 613.47 462 620 462C626.53 462 631.786 456.744 631.786 450.214C631.786 443.684 626.53 438.428 620 438.428C613.47 438.428 608.214 443.737 608.214 450.214Z" fill="white"/>
<path d="M226.487 1077.54C226.487 1084.07 231.743 1089.33 238.274 1089.33C244.804 1089.33 250.06 1084.07 250.06 1077.54C250.06 1071.01 244.751 1065.75 238.274 1065.75C231.797 1065.75 226.487 1071.01 226.487 1077.54Z" fill="white"/>
<path d="M989.94 1077.54C989.94 1084.07 995.196 1089.33 1001.73 1089.33C1008.26 1089.33 1013.51 1084.07 1013.51 1077.54C1013.51 1071.01 1008.26 1065.75 1001.73 1065.75C995.196 1065.75 989.94 1071.01 989.94 1077.54Z" fill="white"/>
<path d="M36.8453 450.48C36.8453 457.01 42.1014 462.266 48.6316 462.266C55.1618 462.266 60.4179 457.01 60.4179 450.48C60.4179 443.949 55.1618 438.693 48.6316 438.693C42.1014 438.693 36.8453 443.949 36.8453 450.48Z" fill="white"/>
<path d="M1179.58 450.48C1179.58 457.01 1184.84 462.266 1191.37 462.266C1197.9 462.266 1203.15 457.01 1203.15 450.48C1203.15 443.949 1197.9 438.693 1191.37 438.693C1184.84 438.693 1179.58 443.949 1179.58 450.48Z" fill="white"/>
<path d="M1053.38 620C1053.38 626.53 1058.64 631.786 1065.17 631.786C1071.7 631.786 1076.96 626.53 1076.96 620C1076.96 613.47 1071.7 608.214 1065.17 608.214C1058.64 608.214 1053.38 613.523 1053.38 620Z" fill="white"/>
<path d="M162.619 620C162.619 626.53 167.928 631.786 174.405 631.786C180.882 631.786 186.191 626.53 186.191 620C186.191 613.47 180.882 608.214 174.405 608.214C167.928 608.214 162.619 613.523 162.619 620Z" fill="white"/>
<path d="M226.487 162.512C226.487 169.043 231.743 174.299 238.274 174.299C244.804 174.299 250.06 169.043 250.06 162.512C250.06 155.982 244.751 150.726 238.274 150.726C231.797 150.726 226.487 156.035 226.487 162.512Z" fill="white"/>
<path d="M989.94 162.512C989.94 169.043 995.196 174.299 1001.73 174.299C1008.26 174.299 1013.51 169.043 1013.51 162.512C1013.51 155.982 1008.26 150.726 1001.73 150.726C995.196 150.726 989.94 156.035 989.94 162.512Z" fill="white"/>
<path d="M608.214 1215.84C608.214 1222.37 613.47 1227.63 620 1227.63C626.53 1227.63 631.786 1222.37 631.786 1215.84C631.786 1209.31 626.53 1204.06 620 1204.06C613.47 1204.06 608.214 1209.31 608.214 1215.84Z" fill="white"/>
<path d="M790.158 520.454C790.158 526.984 795.414 532.24 801.944 532.24C808.474 532.24 813.73 526.984 813.73 520.454C813.73 513.924 808.474 508.667 801.944 508.667C795.414 508.667 790.158 513.977 790.158 520.454Z" fill="white"/>
<path d="M759.312 580.075C759.312 586.606 764.568 591.862 771.098 591.862C777.628 591.862 782.884 586.606 782.884 580.075C782.884 573.545 777.628 568.289 771.098 568.289C764.568 568.289 759.312 573.545 759.312 580.075Z" fill="white"/>
<path d="M608.214 675.693C608.214 682.223 613.47 687.479 620 687.479C626.53 687.479 631.786 682.223 631.786 675.693C631.786 669.162 626.53 663.906 620 663.906C613.47 663.906 608.214 669.216 608.214 675.693Z" fill="white"/>
<path d="M456.585 580.075C456.585 586.606 461.841 591.862 468.371 591.862C474.902 591.862 480.158 586.606 480.158 580.075C480.158 573.545 474.848 568.289 468.371 568.289C461.894 568.289 456.585 573.545 456.585 580.075Z" fill="white"/>
<path d="M426.535 520.454C426.535 526.984 431.791 532.24 438.322 532.24C444.852 532.24 450.108 526.984 450.108 520.454C450.108 513.924 444.799 508.667 438.322 508.667C431.844 508.667 426.535 513.977 426.535 520.454Z" fill="white"/>
<path d="M399.937 673.569C399.937 680.099 405.193 685.355 411.723 685.355C418.253 685.355 423.509 680.099 423.509 673.569C423.509 667.039 418.253 661.783 411.723 661.783C405.193 661.783 399.937 667.039 399.937 673.569Z" fill="white"/>
<path d="M816.438 673.569C816.438 680.099 821.694 685.355 828.224 685.355C834.754 685.355 840.01 680.099 840.01 673.569C840.01 667.039 834.754 661.783 828.224 661.783C821.694 661.783 816.438 667.039 816.438 673.569Z" fill="white"/>
<path d="M608.214 789.52C608.214 796.051 613.47 801.307 620 801.307C626.53 801.307 631.786 796.051 631.786 789.52C631.786 782.99 626.53 777.734 620 777.734C613.47 777.734 608.214 782.99 608.214 789.52Z" fill="white"/>
<path d="M608.214 872.077C608.214 878.608 613.47 883.864 620 883.864C626.53 883.864 631.786 878.608 631.786 872.077C631.786 865.547 626.53 860.291 620 860.291C613.47 860.291 608.214 865.547 608.214 872.077Z" fill="white"/>
<path d="M247.83 872.077C247.83 878.608 253.086 883.864 259.616 883.864C266.147 883.864 271.403 878.608 271.403 872.077C271.403 865.547 266.147 860.291 259.616 860.291C253.086 860.291 247.83 865.547 247.83 872.077Z" fill="white"/>
<path d="M968.544 872.077C968.544 878.608 973.8 883.864 980.331 883.864C986.861 883.864 992.117 878.608 992.117 872.077C992.117 865.547 986.808 860.291 980.331 860.291C973.853 860.291 968.544 865.547 968.544 872.077Z" fill="white"/>
<path d="M865.122 872.077C865.122 878.608 870.379 883.864 876.909 883.864C883.439 883.864 888.695 878.608 888.695 872.077C888.695 865.547 883.439 860.291 876.909 860.291C870.379 860.291 865.122 865.547 865.122 872.077Z" fill="white"/>
<path d="M351.411 872.077C351.411 878.608 356.667 883.864 363.198 883.864C369.728 883.864 374.984 878.608 374.984 872.077C374.984 865.547 369.728 860.291 363.198 860.291C356.667 860.291 351.411 865.547 351.411 872.077Z" fill="white"/>
<path d="M608.214 1077.54C608.214 1084.07 613.47 1089.33 620 1089.33C626.53 1089.33 631.786 1084.07 631.786 1077.54C631.786 1071.01 626.53 1065.75 620 1065.75C613.47 1065.75 608.214 1071.01 608.214 1077.54Z" fill="white"/>
<path d="M712.273 1077.54C712.273 1084.07 717.582 1089.33 724.059 1089.33C730.536 1089.33 735.845 1084.07 735.845 1077.54C735.845 1071.01 730.589 1065.75 724.059 1065.75C717.529 1065.75 712.273 1071.01 712.273 1077.54Z" fill="white"/>
<path d="M504.898 1077.54C504.898 1084.07 510.154 1089.33 516.684 1089.33C523.215 1089.33 528.471 1084.07 528.471 1077.54C528.471 1071.01 523.215 1065.75 516.684 1065.75C510.154 1065.75 504.898 1071.01 504.898 1077.54Z" fill="white"/>
</g>
<defs>
<clipPath id="clip0_1979_4649">
<rect width="1240" height="1240" fill="white"/>
</clipPath>
</defs>
</svg>
