<svg width="1492" height="1492" viewBox="0 0 1492 1492" fill="none" xmlns="http://www.w3.org/2000/svg">
<g clip-path="url(#clip0_2046_198)">
<path d="M746 1492C546.706 1492 359.385 1414.43 218.476 1273.52C77.5675 1132.61 0 945.229 0 746C0 546.771 77.5675 359.385 218.476 218.476C359.385 77.5675 546.706 0 746 0C945.294 0 1132.61 77.5675 1273.52 218.476C1414.43 359.385 1492 546.706 1492 746C1492 945.294 1414.43 1132.61 1273.52 1273.52C1132.61 1414.43 945.294 1492 746 1492ZM746 10.5569C340.46 10.5569 10.5569 340.46 10.5569 746C10.5569 1151.54 340.46 1481.44 746 1481.44C1151.54 1481.44 1481.44 1151.54 1481.44 746C1481.44 340.46 1151.48 10.5569 746 10.5569Z" fill="#F3F5F7"/>
<path d="M746 994.538C608.953 994.538 497.462 883.047 497.462 746C497.462 608.953 608.953 497.462 746 497.462C883.047 497.462 994.538 608.953 994.538 746C994.538 883.047 883.047 994.538 746 994.538ZM746 500.101C610.434 500.101 500.101 610.434 500.101 746C500.101 881.566 610.434 991.899 746 991.899C881.566 991.899 991.899 881.566 991.899 746C991.899 610.434 881.566 500.101 746 500.101Z" fill="#F3F5F7"/>
<path d="M746 1488.97C608.953 1488.97 497.462 1377.48 497.462 1240.44C497.462 1103.39 608.953 991.899 746 991.899C883.047 991.899 994.538 1103.39 994.538 1240.44C994.538 1377.48 883.047 1488.97 746 1488.97ZM746 994.538C610.434 994.538 500.101 1104.87 500.101 1240.44C500.101 1376 610.434 1486.34 746 1486.34C881.566 1486.34 991.899 1376 991.899 1240.44C991.899 1104.87 881.566 994.538 746 994.538Z" fill="#F3F5F7"/>
<path d="M746 500.101C608.953 500.101 497.462 388.61 497.462 251.563C497.462 114.517 608.953 3.02539 746 3.02539C883.047 3.02539 994.538 114.517 994.538 251.563C994.538 388.61 883.047 500.101 746 500.101ZM746 5.66462C610.434 5.66462 500.101 115.997 500.101 251.563C500.101 387.129 610.434 497.462 746 497.462C881.566 497.462 991.899 387.129 991.899 251.563C991.899 115.997 881.566 5.66462 746 5.66462Z" fill="#F3F5F7"/>
<path d="M746 1485.82C474.353 1485.82 253.366 1264.83 253.366 993.251C253.366 721.668 474.353 500.616 746 500.616C1017.65 500.616 1238.63 721.603 1238.63 993.251C1238.63 1264.9 1017.65 1485.82 746 1485.82ZM746 503.255C475.833 503.255 256.005 723.019 256.005 993.251C256.005 1263.48 475.769 1483.18 746 1483.18C1016.23 1483.18 1235.99 1263.42 1235.99 993.251C1235.99 723.084 1016.17 503.255 746 503.255Z" fill="#F3F5F7"/>
<path d="M746 994.538C474.353 994.538 253.366 773.551 253.366 501.968C253.366 230.385 474.353 9.33374 746 9.33374C1017.65 9.33374 1238.63 230.321 1238.63 501.968C1238.63 773.615 1017.65 994.538 746 994.538ZM746 11.973C475.833 11.973 256.005 231.737 256.005 501.968C256.005 772.199 475.769 991.963 746 991.963C1016.23 991.963 1235.99 772.135 1235.99 501.968C1235.99 231.801 1016.17 11.973 746 11.973Z" fill="#F3F5F7"/>
<path d="M746 500.745C536.085 500.745 349.022 367.561 280.402 169.361L282.912 168.524C351.146 365.694 537.244 498.17 746.064 498.17C954.885 498.17 1140.92 365.694 1209.22 168.524L1211.73 169.361C1143.11 367.561 955.98 500.745 746.129 500.745H746Z" fill="#F3F5F7"/>
<path d="M283.041 1323.67L280.531 1322.83C349.279 1124.89 536.342 991.899 746 991.899C955.658 991.899 1142.72 1124.89 1211.47 1322.83L1208.96 1323.67C1140.6 1126.82 954.499 994.538 746 994.538C537.501 994.538 351.403 1126.82 283.041 1323.67Z" fill="#F3F5F7"/>
<path d="M336.019 254.46C336.019 262.828 329.26 269.587 320.891 269.587C312.523 269.587 305.764 262.828 305.764 254.46C305.764 246.092 312.523 239.333 320.891 239.333C329.26 239.333 336.019 246.092 336.019 254.46Z" fill="#F3F5F7"/>
<path d="M336.019 745.549C336.019 753.918 329.26 760.677 320.891 760.677C312.523 760.677 305.764 753.918 305.764 745.549C305.764 737.181 312.523 730.422 320.891 730.422C329.26 730.422 336.019 737.181 336.019 745.549Z" fill="#F3F5F7"/>
<path d="M336.019 1240.44C336.019 1248.81 329.26 1255.56 320.891 1255.56C312.523 1255.56 305.764 1248.81 305.764 1240.44C305.764 1232.07 312.523 1225.31 320.891 1225.31C329.26 1225.31 336.019 1232.07 336.019 1240.44Z" fill="#F3F5F7"/>
<path d="M1155.98 254.46C1155.98 262.828 1162.74 269.587 1171.11 269.587C1179.48 269.587 1186.24 262.828 1186.24 254.46C1186.24 246.092 1179.48 239.333 1171.11 239.333C1162.74 239.333 1155.98 246.092 1155.98 254.46Z" fill="#F3F5F7"/>
<path d="M1155.98 745.549C1155.98 753.918 1162.74 760.677 1171.11 760.677C1179.48 760.677 1186.24 753.918 1186.24 745.549C1186.24 737.181 1179.48 730.422 1171.11 730.422C1162.74 730.422 1155.98 737.181 1155.98 745.549Z" fill="#F3F5F7"/>
<path d="M1155.98 1240.44C1155.98 1248.81 1162.74 1255.56 1171.11 1255.56C1179.48 1255.56 1186.24 1248.81 1186.24 1240.44C1186.24 1232.07 1179.48 1225.31 1171.11 1225.31C1162.74 1225.31 1155.98 1232.07 1155.98 1240.44Z" fill="#F3F5F7"/>
</g>
<defs>
<clipPath id="clip0_2046_198">
<rect width="1492" height="1492" fill="white"/>
</clipPath>
</defs>
</svg>
